<?xml version="1.0" encoding="iso-8859-1"?>
<!-- Generator: Adobe Illustrator 27.0.0, SVG Export Plug-In . SVG Version: 6.00 Build 0)  -->
<svg version="1.1" id="Layer_1" xmlns="http://www.w3.org/2000/svg" xmlns:xlink="http://www.w3.org/1999/xlink" x="0px" y="0px"
	 viewBox="0 0 500 500" style="enable-background:new 0 0 500 500;" xml:space="preserve">
<g id="watermark_1_">
	<g>
		<g id="watermark" style="opacity:0.61;">
			<g>
				<g>
					<g>
						<g>
							<polygon style="fill:#FFFFFF;" points="213.765,461.172 208.204,474.017 205.268,474.017 199.726,461.172 202.938,461.172 
								206.846,470.347 210.81,461.172 							"/>
						</g>
						<g>
							<path style="fill:#FFFFFF;" d="M223.507,469.741h-7.469c0.275,1.23,1.321,1.982,2.826,1.982c1.046,0,1.798-0.312,2.477-0.954
								l1.523,1.651c-0.917,1.046-2.294,1.597-4.074,1.597c-3.413,0-5.634-2.147-5.634-5.083c0-2.954,2.257-5.083,5.267-5.083
								c2.899,0,5.138,1.945,5.138,5.12C223.562,469.191,223.526,469.503,223.507,469.741 M216.002,468.071h4.863
								c-0.202-1.248-1.138-2.055-2.422-2.055C217.139,466.016,216.204,466.805,216.002,468.071"/>
						</g>
						<g>
							<path style="fill:#FFFFFF;" d="M224.735,468.934c0-2.973,2.294-5.083,5.505-5.083c2.074,0,3.707,0.899,4.423,2.514
								l-2.22,1.193c-0.532-0.936-1.321-1.358-2.221-1.358c-1.45,0-2.587,1.009-2.587,2.734c0,1.725,1.138,2.734,2.587,2.734
								c0.899,0,1.688-0.404,2.221-1.358l2.22,1.211c-0.716,1.578-2.349,2.495-4.423,2.495
								C227.029,474.017,224.735,471.907,224.735,468.934"/>
						</g>
						<g>
							<path style="fill:#FFFFFF;" d="M242.828,473.393c-0.587,0.422-1.45,0.624-2.331,0.624c-2.33,0-3.688-1.193-3.688-3.542
								v-4.055h-1.523v-2.202h1.523v-2.404h2.863v2.404h2.459v2.202h-2.459v4.019c0,0.844,0.458,1.303,1.229,1.303
								c0.422,0,0.844-0.128,1.156-0.367L242.828,473.393z"/>
						</g>
					</g>
					<g>
						<path style="fill:#FFFFFF;" d="M262.474,463.997v2.643c-0.238-0.018-0.422-0.037-0.642-0.037
							c-1.578,0-2.624,0.862-2.624,2.753v4.661h-2.863v-9.873h2.734v1.303C259.776,464.493,260.951,463.997,262.474,463.997"/>
					</g>
					<g>
						<path style="fill:#FFFFFF;" d="M263.299,472.53l1.009-2.239c1.083,0.789,2.697,1.339,4.239,1.339
							c1.762,0,2.477-0.587,2.477-1.376c0-2.404-7.469-0.752-7.469-5.524c0-2.184,1.762-4,5.413-4c1.615,0,3.267,0.385,4.459,1.138
							l-0.918,2.257c-1.193-0.679-2.422-1.009-3.56-1.009c-1.761,0-2.44,0.66-2.44,1.468c0,2.367,7.468,0.734,7.468,5.45
							c0,2.147-1.78,3.982-5.45,3.982C266.492,474.017,264.437,473.411,263.299,472.53"/>
					</g>
					<g>
						<path style="fill:#FFFFFF;" d="M285.428,469.741h-7.469c0.275,1.23,1.321,1.982,2.826,1.982c1.046,0,1.798-0.312,2.477-0.954
							l1.523,1.651c-0.918,1.046-2.294,1.597-4.074,1.597c-3.413,0-5.634-2.147-5.634-5.083c0-2.954,2.257-5.083,5.267-5.083
							c2.9,0,5.138,1.945,5.138,5.12C285.484,469.191,285.447,469.503,285.428,469.741 M277.923,468.071h4.863
							c-0.202-1.248-1.138-2.055-2.422-2.055C279.061,466.016,278.125,466.805,277.923,468.071"/>
					</g>
					<g>
						<path style="fill:#FFFFFF;" d="M297.007,469.741h-7.469c0.275,1.23,1.321,1.982,2.826,1.982c1.046,0,1.798-0.312,2.477-0.954
							l1.523,1.651c-0.918,1.046-2.294,1.597-4.074,1.597c-3.413,0-5.634-2.147-5.634-5.083c0-2.954,2.257-5.083,5.267-5.083
							c2.899,0,5.138,1.945,5.138,5.12C297.062,469.191,297.025,469.503,297.007,469.741 M289.501,468.071h4.863
							c-0.202-1.248-1.138-2.055-2.422-2.055C290.639,466.016,289.703,466.805,289.501,468.071"/>
					</g>
					<g>
						<polygon style="fill:#FFFFFF;" points="303.208,470.145 301.831,471.503 301.831,474.017 298.969,474.017 298.969,460.401 
							301.831,460.401 301.831,468.108 306.016,464.144 309.429,464.144 305.318,468.328 309.796,474.017 306.327,474.017 						"/>
					</g>
					<g>
						<path style="fill:#FFFFFF;" d="M256.601,475.359L256.601,475.359l-2.86-2.86c-0.435,0.508-0.953,0.943-1.534,1.284
							c-0.092,0.069-0.186,0.136-0.283,0.199l3.027,3.027c0.456,0.456,1.195,0.456,1.65,0
							C257.057,476.554,257.057,475.815,256.601,475.359"/>
					</g>
					<g>
						<path style="fill:#FFFFFF;" d="M249.984,463.244c0.221-0.173,0.495-0.281,0.797-0.281c0.042,0,0.083,0.002,0.124,0.006
							c-0.214-0.156-0.478-0.249-0.764-0.249c-0.395,0-0.744,0.18-0.981,0.458c-0.051,0-0.1,0.006-0.151,0.008
							c0.039-0.077,0.064-0.162,0.064-0.255c0-0.234-0.143-0.434-0.346-0.519c0.087,0.126,0.138,0.279,0.138,0.445
							c0,0.122-0.031,0.237-0.081,0.341c-2.811,0.201-5.03,2.539-5.03,5.4c0,2.993,2.426,5.42,5.42,5.42
							c2.993,0,5.42-2.426,5.42-5.42C254.595,465.879,252.593,463.635,249.984,463.244 M247.983,464.656
							c0.435,0,0.844,0.112,1.199,0.309c0.374-0.245,0.82-0.387,1.299-0.387c0.711,0,1.348,0.312,1.784,0.806
							c-0.435-0.379-1.004-0.61-1.627-0.61c-0.449,0-0.87,0.12-1.234,0.329c-0.079,0.046-0.156,0.096-0.229,0.15
							c-0.065-0.048-0.133-0.093-0.204-0.134c-0.369-0.219-0.8-0.344-1.26-0.344c-0.3,0-0.588,0.054-0.854,0.152
							C247.196,464.754,247.578,464.656,247.983,464.656 M251.772,469.098c0.115,0.305,0.181,0.634,0.181,0.979
							c0,1.534-1.244,2.777-2.778,2.777c-1.534,0-2.777-1.243-2.777-2.777c0-0.345,0.066-0.674,0.181-0.979
							c-0.62-0.382-1.035-1.064-1.035-1.846c0-1.197,0.971-2.168,2.168-2.168c0.565,0,1.078,0.218,1.463,0.572
							c0.386-0.354,0.899-0.572,1.464-0.572c1.197,0,2.168,0.971,2.168,2.168C252.807,468.034,252.392,468.716,251.772,469.098"/>
					</g>
					<g>
						<path style="fill:#FFFFFF;" d="M251.666,467.061c0,0.497-0.404,0.901-0.901,0.901c-0.497,0-0.901-0.404-0.901-0.901
							s0.404-0.901,0.901-0.901c0.101,0,0.197,0.017,0.287,0.047c-0.03,0.062-0.045,0.132-0.045,0.204
							c0,0.273,0.221,0.494,0.494,0.494c0.05,0,0.099-0.008,0.146-0.022C251.66,466.941,251.666,467,251.666,467.061"/>
					</g>
					<g>
						<path style="fill:#FFFFFF;" d="M248.255,467.061c0,0.376-0.305,0.681-0.681,0.681c-0.376,0-0.681-0.305-0.681-0.681
							s0.305-0.681,0.681-0.681c0.076,0,0.149,0.013,0.217,0.035c-0.023,0.047-0.034,0.1-0.034,0.155
							c0,0.206,0.167,0.374,0.374,0.374c0.038,0,0.075-0.006,0.11-0.017C248.25,466.97,248.255,467.015,248.255,467.061"/>
					</g>
					<g>
						<g>
							<g>
								<rect x="242.908" y="467.83" style="fill:#FFFFFF;" width="0.616" height="0.616"/>
							</g>
							<g>
								<rect x="254.827" y="467.83" style="fill:#FFFFFF;" width="0.616" height="0.616"/>
							</g>
							<g>
								<path style="fill:#FFFFFF;" d="M255.205,468.082h-0.14c0-3.248-2.642-5.89-5.89-5.89c-3.248,0-5.89,2.642-5.89,5.89h-0.14
									c0-1.611,0.627-3.125,1.766-4.264c1.139-1.139,2.653-1.766,4.264-1.766c1.611,0,3.125,0.627,4.264,1.766
									C254.578,464.957,255.205,466.471,255.205,468.082"/>
							</g>
						</g>
						<g>
							<rect x="248.868" y="461.814" style="fill:#FFFFFF;" width="0.616" height="0.616"/>
						</g>
						<g>
							<rect x="244.95" y="462.052" style="fill:#FFFFFF;" width="8.45" height="0.14"/>
						</g>
						<g>
							<path style="fill:#FFFFFF;" d="M245.174,462.15c0,0.108-0.088,0.196-0.196,0.196c-0.108,0-0.196-0.088-0.196-0.196
								c0-0.108,0.088-0.196,0.196-0.196C245.086,461.954,245.174,462.042,245.174,462.15"/>
						</g>
						<g>
							<path style="fill:#FFFFFF;" d="M253.596,462.15c0,0.108-0.088,0.196-0.196,0.196c-0.108,0-0.196-0.088-0.196-0.196
								c0-0.108,0.088-0.196,0.196-0.196C253.509,461.954,253.596,462.042,253.596,462.15"/>
						</g>
					</g>
				</g>
				<g>
					<path style="fill:#FFFFFF;" d="M314.356,473.409c0,1.559-2.364,1.559-2.364,0C311.993,471.851,314.356,471.851,314.356,473.409
						z"/>
				</g>
				<g>
					<g>
						<g>
							<path style="fill:#FFFFFF;" d="M161.739,466.549l1.772,6.088l1.855-6.088h2.215l-2.823,8.14h-2.33l-0.837-2.396l-0.722-2.708
								l-0.722,2.708l-0.837,2.396h-2.33l-2.839-8.14h2.231l1.855,6.088l1.756-6.088H161.739z"/>
						</g>
						<g>
							<path style="fill:#FFFFFF;" d="M176.713,466.549l1.772,6.088l1.855-6.088h2.215l-2.823,8.14h-2.33l-0.837-2.396l-0.722-2.708
								l-0.722,2.708l-0.837,2.396h-2.33l-2.839-8.14h2.231l1.855,6.088l1.756-6.088H176.713z"/>
						</g>
						<g>
							<path style="fill:#FFFFFF;" d="M191.687,466.549l1.772,6.088l1.855-6.088h2.215l-2.823,8.14h-2.33l-0.837-2.396l-0.722-2.708
								l-0.722,2.708l-0.837,2.396h-2.33l-2.839-8.14h2.231l1.855,6.088l1.756-6.088H191.687z"/>
						</g>
					</g>
					<g>
						<path style="fill:#FFFFFF;" d="M200.908,473.52c0,1.559-2.364,1.559-2.364,0C198.545,471.962,200.908,471.962,200.908,473.52z
							"/>
					</g>
					<g>
						<path style="fill:#FFFFFF;" d="M322.71,473.409c-0.935,0.919-1.919,1.28-3.117,1.28c-2.346,0-4.3-1.411-4.3-4.282
							s1.953-4.284,4.3-4.284c1.149,0,2.035,0.329,2.921,1.199l-1.264,1.329c-0.476-0.428-1.066-0.64-1.623-0.64
							c-1.346,0-2.33,0.985-2.33,2.396c0,1.542,1.05,2.362,2.297,2.362c0.64,0,1.28-0.18,1.772-0.672L322.71,473.409z"/>
					</g>
					<g>
						<path style="fill:#FFFFFF;" d="M331.805,470.472c0,2.33-1.591,4.217-4.217,4.217c-2.626,0-4.201-1.887-4.201-4.217
							c0-2.314,1.609-4.217,4.185-4.217C330.149,466.255,331.805,468.158,331.805,470.472z M325.389,470.472
							c0,1.231,0.739,2.38,2.199,2.38c1.46,0,2.199-1.149,2.199-2.38c0-1.215-0.854-2.396-2.199-2.396
							C326.144,468.077,325.389,469.258,325.389,470.472z"/>
					</g>
					<g>
						<path style="fill:#FFFFFF;" d="M338.572,474.689v-4.332c0-1.068-0.559-2.035-1.658-2.035c-1.082,0-1.722,0.967-1.722,2.035
							v4.332h-2.003v-8.107h1.855l0.148,0.985c0.426-0.82,1.362-1.116,2.133-1.116c0.969,0,1.937,0.394,2.396,1.51
							c0.723-1.149,1.658-1.478,2.708-1.478c2.297,0,3.43,1.412,3.43,3.84v4.365h-2.003v-4.365c0-1.066-0.442-1.97-1.526-1.97
							c-1.082,0-1.756,0.935-1.756,2.003v4.332H338.572z"/>
					</g>
				</g>
			</g>
		</g>
		<g style="opacity:0.61;">
			<g>
				<g>
					<path style="fill:#FFFFFF;" d="M345.988,431.299c-0.006-1.224-0.959-2.121-2.189-2.14c-0.924-0.014-0.832,0.12-0.834-0.867
						c-0.003-1.097-0.007-2.194,0.003-3.292c0.003-0.379-0.112-0.691-0.362-0.976c-2.342-2.668-4.678-5.342-7.019-8.011
						c-0.12-0.137-0.275-0.244-0.414-0.366c-6.214,0-12.427,0-18.641,0c-0.794,0.293-1.14,0.868-1.138,1.709
						c0.01,3.748,0.004,7.496,0.004,11.243c0,0.556-0.003,0.589-0.55,0.551c-1.497-0.102-2.516,0.986-2.497,2.492
						c0.044,3.476,0.013,6.953,0.014,10.429c0.001,1.58,0.867,2.443,2.45,2.449c0.582,0.002,0.582,0.002,0.582,0.6
						c0,2.219-0.001,4.438,0.001,6.657c0.001,1.192,0.58,1.771,1.768,1.771c8.013,0.001,16.027,0.001,24.04,0
						c1.168,0,1.755-0.583,1.757-1.745c0.002-2.256,0-4.512,0.001-6.768c0-0.512,0.002-0.511,0.52-0.515
						c0.271-0.002,0.541,0.008,0.809-0.058c0.996-0.246,1.69-1.044,1.694-2.069C346.003,438.696,346.005,434.997,345.988,431.299z
						 M317.537,417.162c5.337,0,10.674,0,16.01,0c0.548,0,0.554,0.007,0.554,0.561c0.001,2.243-0.001,4.486,0.001,6.73
						c0.001,0.811,0.249,1.059,1.06,1.059c1.91,0.001,3.821,0,5.731,0.001c0.458,0,0.479,0.021,0.481,0.483
						c0.003,0.887,0.002,1.775,0,2.662c-0.001,0.477-0.024,0.498-0.504,0.499c-3.895,0.001-7.79,0-11.684,0
						c-3.882,0-7.765,0-11.647,0c-0.55,0-0.552-0.001-0.552-0.561c-0.001-3.624-0.001-7.247,0-10.871
						C316.987,417.166,316.991,417.162,317.537,417.162z M340.822,451.579c-3.883,0.001-7.766,0-11.65,0c-3.871,0-7.742,0-11.613,0
						c-0.572,0-0.574-0.002-0.574-0.579c-0.001-1.997-0.001-3.994,0.001-5.991c0-0.464,0.023-0.486,0.478-0.487
						c7.803-0.001,15.607-0.001,23.41,0c0.478,0,0.499,0.02,0.499,0.503c0.002,1.997,0.001,3.994,0,5.991
						C341.375,451.574,341.37,451.579,340.822,451.579z"/>
				</g>
				<g>
					<g>
						<rect x="327.418" y="417.053" style="fill:#FFFFFF;" width="1.757" height="1.054"/>
					</g>
					<g>
						<rect x="325.662" y="418.107" style="fill:#FFFFFF;" width="1.757" height="1.054"/>
					</g>
					<g>
						<rect x="327.418" y="419.161" style="fill:#FFFFFF;" width="1.757" height="1.054"/>
					</g>
					<g>
						<rect x="325.662" y="420.215" style="fill:#FFFFFF;" width="1.757" height="1.054"/>
					</g>
					<g>
						<rect x="327.418" y="421.269" style="fill:#FFFFFF;" width="1.757" height="1.054"/>
					</g>
					<g>
						<rect x="325.662" y="422.323" style="fill:#FFFFFF;" width="1.757" height="1.054"/>
					</g>
					<g>
						<rect x="327.418" y="423.378" style="fill:#FFFFFF;" width="1.757" height="1.054"/>
					</g>
					<g>
						<rect x="325.662" y="424.432" style="fill:#FFFFFF;" width="1.757" height="1.054"/>
					</g>
					<g>
						<rect x="327.418" y="425.486" style="fill:#FFFFFF;" width="1.757" height="1.054"/>
					</g>
					<g>
						<rect x="325.662" y="426.54" style="fill:#FFFFFF;" width="1.757" height="1.054"/>
					</g>
					<g>
						<rect x="327.418" y="427.594" style="fill:#FFFFFF;" width="1.757" height="1.054"/>
					</g>
					<g>
						<rect x="325.662" y="428.648" style="fill:#FFFFFF;" width="1.757" height="1.054"/>
					</g>
				</g>
			</g>
			<g>
				<path style="fill:#FFFFFF;" d="M187.637,431.299c-0.006-1.224-0.959-2.121-2.189-2.14c-0.924-0.014-0.832,0.12-0.834-0.867
					c-0.003-1.097-0.007-2.194,0.003-3.292c0.003-0.379-0.112-0.691-0.362-0.976c-2.342-2.668-4.678-5.342-7.019-8.011
					c-0.12-0.137-0.275-0.244-0.414-0.366c-6.214,0-12.427,0-18.641,0c-0.794,0.293-1.14,0.868-1.138,1.709
					c0.01,3.748,0.004,7.496,0.004,11.243c0,0.556-0.003,0.589-0.55,0.551c-1.497-0.102-2.516,0.986-2.497,2.492
					c0.044,3.476,0.013,6.953,0.014,10.429c0.001,1.58,0.867,2.443,2.45,2.449c0.582,0.002,0.582,0.002,0.582,0.6
					c0,2.219-0.001,4.438,0.001,6.657c0.001,1.192,0.58,1.771,1.768,1.771c8.013,0.001,16.027,0.001,24.04,0
					c1.168,0,1.755-0.583,1.757-1.745c0.002-2.256,0-4.512,0.001-6.768c0-0.512,0.002-0.511,0.52-0.515
					c0.271-0.002,0.541,0.008,0.809-0.058c0.996-0.246,1.69-1.044,1.694-2.069C187.652,438.696,187.655,434.997,187.637,431.299z
					 M159.187,417.162c5.337,0,10.674,0,16.01,0c0.548,0,0.554,0.007,0.554,0.561c0.001,2.243-0.001,4.486,0.001,6.73
					c0.001,0.811,0.249,1.059,1.06,1.059c1.91,0.001,3.821,0,5.731,0.001c0.458,0,0.479,0.021,0.481,0.483
					c0.003,0.887,0.002,1.775,0,2.662c-0.001,0.477-0.024,0.498-0.504,0.499c-3.895,0.001-7.79,0-11.684,0
					c-3.882,0-7.765,0-11.647,0c-0.55,0-0.552-0.001-0.552-0.561c-0.001-3.624-0.001-7.247,0-10.871
					C158.636,417.166,158.64,417.162,159.187,417.162z M182.472,451.579c-3.883,0.001-7.766,0-11.65,0c-3.871,0-7.742,0-11.613,0
					c-0.572,0-0.574-0.002-0.574-0.579c-0.001-1.997-0.001-3.994,0.001-5.991c0-0.464,0.023-0.486,0.478-0.487
					c7.803-0.001,15.607-0.001,23.41,0c0.478,0,0.499,0.02,0.499,0.503c0.002,1.997,0.001,3.994,0,5.991
					C183.024,451.574,183.019,451.579,182.472,451.579z"/>
			</g>
			<g>
				<path style="fill:#FFFFFF;" d="M159.779,440.669v-7.897h2.779c0.375,0,0.726,0.061,1.053,0.182
					c0.327,0.121,0.612,0.292,0.855,0.513c0.242,0.221,0.434,0.483,0.573,0.789c0.14,0.305,0.21,0.642,0.21,1.009
					c0,0.375-0.07,0.715-0.21,1.02c-0.14,0.305-0.331,0.568-0.573,0.789c-0.243,0.221-0.528,0.392-0.855,0.513
					c-0.327,0.121-0.678,0.182-1.053,0.182h-1.29v2.901H159.779z M162.58,436.356c0.39,0,0.684-0.111,0.882-0.331
					c0.199-0.22,0.298-0.474,0.298-0.761c0-0.14-0.024-0.276-0.072-0.408c-0.048-0.132-0.121-0.248-0.221-0.347
					c-0.099-0.099-0.223-0.178-0.37-0.237c-0.147-0.059-0.32-0.089-0.518-0.089h-1.312v2.173H162.58z"/>
				<path style="fill:#FFFFFF;" d="M166.308,432.771h1.731l3.177,5.294h0.088l-0.088-1.522v-3.772h1.478v7.897h-1.566l-3.353-5.592
					h-0.088l0.088,1.522v4.07h-1.467V432.771z"/>
				<path style="fill:#FFFFFF;" d="M177.922,436.334h3.872c0.022,0.089,0.04,0.195,0.055,0.32c0.014,0.125,0.022,0.25,0.022,0.375
					c0,0.507-0.077,0.985-0.231,1.434c-0.154,0.449-0.397,0.849-0.728,1.202c-0.353,0.375-0.776,0.666-1.268,0.871
					c-0.493,0.206-1.055,0.309-1.688,0.309c-0.574,0-1.114-0.103-1.622-0.309c-0.507-0.206-0.948-0.492-1.323-0.86
					c-0.375-0.367-0.673-0.803-0.894-1.307c-0.221-0.504-0.331-1.053-0.331-1.649c0-0.595,0.11-1.145,0.331-1.649
					c0.221-0.504,0.518-0.939,0.894-1.307c0.375-0.367,0.816-0.654,1.323-0.86c0.507-0.206,1.048-0.309,1.622-0.309
					c0.64,0,1.211,0.11,1.715,0.331c0.504,0.221,0.935,0.526,1.296,0.915l-1.025,1.004c-0.258-0.272-0.544-0.48-0.861-0.623
					c-0.316-0.143-0.695-0.215-1.136-0.215c-0.361,0-0.703,0.065-1.026,0.193c-0.324,0.129-0.607,0.311-0.85,0.546
					c-0.242,0.235-0.436,0.52-0.579,0.855c-0.143,0.335-0.215,0.708-0.215,1.119c0,0.412,0.072,0.785,0.215,1.12
					c0.143,0.335,0.338,0.62,0.584,0.855c0.246,0.235,0.531,0.418,0.855,0.546c0.323,0.129,0.669,0.193,1.037,0.193
					c0.419,0,0.773-0.061,1.064-0.182c0.29-0.121,0.538-0.278,0.744-0.469c0.148-0.132,0.275-0.3,0.381-0.502
					c0.106-0.202,0.189-0.428,0.248-0.678h-2.482V436.334z"/>
			</g>
			<g>
				<path style="fill:#FFFFFF;" d="M224.019,431.299c-0.006-1.224-0.959-2.121-2.189-2.14c-0.924-0.014-0.832,0.12-0.834-0.867
					c-0.003-1.097-0.007-2.194,0.003-3.292c0.003-0.379-0.112-0.691-0.362-0.976c-2.342-2.668-4.678-5.342-7.019-8.011
					c-0.12-0.137-0.275-0.244-0.414-0.366c-6.214,0-12.427,0-18.641,0c-0.794,0.293-1.14,0.868-1.138,1.709
					c0.01,3.748,0.004,7.496,0.004,11.243c0,0.556-0.003,0.589-0.55,0.551c-1.497-0.102-2.516,0.986-2.497,2.492
					c0.044,3.476,0.013,6.953,0.014,10.429c0.001,1.58,0.867,2.443,2.45,2.449c0.582,0.002,0.582,0.002,0.582,0.6
					c0,2.219-0.001,4.438,0.001,6.657c0.001,1.192,0.58,1.771,1.768,1.771c8.013,0.001,16.027,0.001,24.04,0
					c1.168,0,1.755-0.583,1.757-1.745c0.002-2.256,0-4.512,0.001-6.768c0-0.512,0.002-0.511,0.52-0.515
					c0.271-0.002,0.541,0.008,0.809-0.058c0.997-0.246,1.69-1.044,1.694-2.069C224.034,438.696,224.036,434.997,224.019,431.299z
					 M195.568,417.162c5.337,0,10.674,0,16.01,0c0.548,0,0.554,0.007,0.554,0.561c0.001,2.243-0.001,4.486,0.001,6.73
					c0.001,0.811,0.249,1.059,1.06,1.059c1.91,0.001,3.821,0,5.731,0.001c0.458,0,0.479,0.021,0.481,0.483
					c0.003,0.887,0.002,1.775,0,2.662c-0.001,0.477-0.024,0.498-0.504,0.499c-3.895,0.001-7.79,0-11.684,0
					c-3.882,0-7.765,0-11.647,0c-0.55,0-0.552-0.001-0.552-0.561c-0.001-3.624-0.001-7.247,0-10.871
					C195.018,417.166,195.022,417.162,195.568,417.162z M218.854,451.579c-3.883,0.001-7.766,0-11.65,0c-3.871,0-7.742,0-11.613,0
					c-0.572,0-0.574-0.002-0.574-0.579c-0.001-1.997-0.001-3.994,0.001-5.991c0-0.464,0.023-0.486,0.478-0.487
					c7.803-0.001,15.607-0.001,23.41,0c0.478,0,0.499,0.02,0.499,0.503c0.002,1.997,0.001,3.994,0,5.991
					C219.406,451.574,219.401,451.579,218.854,451.579z"/>
			</g>
			<g>
				<path style="fill:#FFFFFF;" d="M205.111,432.771h1.699l2.967,7.897h-1.644l-0.651-1.886h-3.044l-0.651,1.886h-1.643
					L205.111,432.771z M206.997,437.415l-0.706-1.974l-0.287-0.96h-0.088l-0.287,0.96l-0.706,1.974H206.997z"/>
				<path style="fill:#FFFFFF;" d="M211.331,434.536c-0.125,0-0.245-0.024-0.359-0.072c-0.114-0.048-0.213-0.114-0.298-0.199
					c-0.084-0.084-0.151-0.182-0.198-0.292c-0.048-0.11-0.072-0.232-0.072-0.364s0.024-0.254,0.072-0.364
					c0.048-0.11,0.114-0.208,0.198-0.292c0.084-0.084,0.184-0.151,0.298-0.198c0.114-0.048,0.233-0.072,0.359-0.072
					c0.257,0,0.478,0.09,0.662,0.27c0.184,0.181,0.276,0.399,0.276,0.656s-0.092,0.476-0.276,0.656
					C211.809,434.446,211.589,434.536,211.331,434.536z M210.615,440.669v-5.404h1.445v5.404H210.615z"/>
			</g>
			<g>
				<path style="fill:#FFFFFF;" d="M261.044,431.299c-0.006-1.224-0.959-2.121-2.189-2.14c-0.924-0.014-0.832,0.12-0.834-0.867
					c-0.003-1.097-0.007-2.194,0.003-3.292c0.003-0.379-0.112-0.691-0.362-0.976c-2.342-2.668-4.678-5.342-7.019-8.011
					c-0.12-0.137-0.275-0.244-0.414-0.366c-6.214,0-12.427,0-18.641,0c-0.794,0.293-1.14,0.868-1.138,1.709
					c0.01,3.748,0.004,7.496,0.004,11.243c0,0.556-0.003,0.589-0.55,0.551c-1.497-0.102-2.516,0.986-2.497,2.492
					c0.044,3.476,0.013,6.953,0.014,10.429c0.001,1.58,0.867,2.443,2.45,2.449c0.582,0.002,0.582,0.002,0.582,0.6
					c0,2.219-0.001,4.438,0.001,6.657c0.001,1.192,0.58,1.771,1.768,1.771c8.013,0.001,16.027,0.001,24.04,0
					c1.168,0,1.755-0.583,1.757-1.745c0.002-2.256,0-4.512,0.001-6.768c0-0.512,0.002-0.511,0.52-0.515
					c0.271-0.002,0.541,0.008,0.809-0.058c0.996-0.246,1.69-1.044,1.694-2.069C261.059,438.696,261.061,434.997,261.044,431.299z
					 M232.593,417.162c5.337,0,10.674,0,16.01,0c0.548,0,0.554,0.007,0.554,0.561c0.001,2.243-0.001,4.486,0.001,6.73
					c0.001,0.811,0.249,1.059,1.06,1.059c1.91,0.001,3.821,0,5.731,0.001c0.458,0,0.479,0.021,0.481,0.483
					c0.003,0.887,0.002,1.775,0,2.662c-0.001,0.477-0.024,0.498-0.504,0.499c-3.895,0.001-7.79,0-11.684,0
					c-3.882,0-7.765,0-11.647,0c-0.55,0-0.552-0.001-0.552-0.561c-0.001-3.624-0.001-7.247,0-10.871
					C232.042,417.166,232.047,417.162,232.593,417.162z M255.878,451.579c-3.883,0.001-7.766,0-11.65,0c-3.871,0-7.742,0-11.613,0
					c-0.572,0-0.574-0.002-0.574-0.579c-0.001-1.997-0.001-3.994,0.001-5.991c0-0.464,0.023-0.486,0.478-0.487
					c7.803-0.001,15.607-0.001,23.41,0c0.478,0,0.499,0.02,0.499,0.503c0.002,1.997,0.001,3.994,0,5.991
					C256.431,451.574,256.426,451.579,255.878,451.579z"/>
			</g>
			<g>
				<path style="fill:#FFFFFF;" d="M236.361,440.845c-0.338,0-0.662-0.048-0.971-0.143c-0.309-0.095-0.592-0.239-0.849-0.43
					c-0.257-0.191-0.481-0.425-0.673-0.7c-0.191-0.276-0.342-0.597-0.452-0.965l1.401-0.551c0.103,0.397,0.283,0.726,0.54,0.987
					c0.257,0.261,0.596,0.392,1.015,0.392c0.154,0,0.303-0.02,0.447-0.061c0.143-0.04,0.272-0.099,0.386-0.176
					s0.204-0.175,0.27-0.292c0.066-0.118,0.099-0.254,0.099-0.408c0-0.147-0.026-0.279-0.077-0.397
					c-0.051-0.117-0.138-0.227-0.259-0.331c-0.121-0.103-0.28-0.202-0.475-0.298c-0.195-0.095-0.435-0.195-0.722-0.298l-0.485-0.176
					c-0.213-0.073-0.429-0.173-0.645-0.298c-0.217-0.125-0.413-0.276-0.59-0.452c-0.177-0.176-0.322-0.384-0.436-0.623
					c-0.114-0.239-0.171-0.509-0.171-0.81c0-0.309,0.06-0.597,0.182-0.866c0.121-0.268,0.294-0.503,0.518-0.706
					c0.224-0.202,0.492-0.36,0.805-0.474s0.66-0.171,1.042-0.171c0.397,0,0.74,0.053,1.031,0.16
					c0.291,0.107,0.537,0.243,0.739,0.408c0.202,0.165,0.366,0.348,0.491,0.546c0.125,0.199,0.217,0.386,0.276,0.563l-1.312,0.551
					c-0.074-0.221-0.208-0.419-0.402-0.596c-0.195-0.176-0.462-0.265-0.8-0.265c-0.324,0-0.592,0.075-0.805,0.226
					c-0.213,0.151-0.32,0.348-0.32,0.59c0,0.235,0.103,0.436,0.309,0.601c0.206,0.165,0.533,0.325,0.982,0.48l0.497,0.165
					c0.316,0.111,0.605,0.237,0.866,0.381c0.261,0.143,0.485,0.314,0.673,0.513c0.187,0.199,0.331,0.425,0.43,0.678
					c0.1,0.254,0.149,0.546,0.149,0.877c0,0.412-0.083,0.767-0.248,1.064c-0.165,0.298-0.377,0.542-0.634,0.734
					c-0.258,0.191-0.548,0.335-0.872,0.43C236.986,440.797,236.67,440.845,236.361,440.845z"/>
				<path style="fill:#FFFFFF;" d="M239.516,432.771h1.61l1.633,4.754l0.287,1.015h0.088l0.309-1.015l1.699-4.754h1.61l-2.879,7.897
					h-1.566L239.516,432.771z"/>
				<path style="fill:#FFFFFF;" d="M251.097,436.334h3.871c0.022,0.089,0.04,0.195,0.055,0.32c0.015,0.125,0.023,0.25,0.023,0.375
					c0,0.507-0.078,0.985-0.232,1.434c-0.154,0.449-0.397,0.849-0.728,1.202c-0.353,0.375-0.775,0.666-1.268,0.871
					c-0.493,0.206-1.055,0.309-1.688,0.309c-0.574,0-1.114-0.103-1.621-0.309c-0.507-0.206-0.949-0.492-1.324-0.86
					c-0.375-0.367-0.673-0.803-0.894-1.307c-0.22-0.504-0.331-1.053-0.331-1.649c0-0.595,0.11-1.145,0.331-1.649
					c0.221-0.504,0.518-0.939,0.894-1.307c0.375-0.367,0.816-0.654,1.324-0.86c0.507-0.206,1.047-0.309,1.621-0.309
					c0.64,0,1.211,0.11,1.715,0.331c0.504,0.221,0.936,0.526,1.296,0.915l-1.026,1.004c-0.257-0.272-0.544-0.48-0.861-0.623
					c-0.316-0.143-0.694-0.215-1.136-0.215c-0.36,0-0.702,0.065-1.026,0.193c-0.323,0.129-0.607,0.311-0.849,0.546
					c-0.243,0.235-0.436,0.52-0.579,0.855c-0.143,0.335-0.215,0.708-0.215,1.119c0,0.412,0.072,0.785,0.215,1.12
					c0.143,0.335,0.338,0.62,0.585,0.855c0.246,0.235,0.531,0.418,0.854,0.546c0.324,0.129,0.669,0.193,1.037,0.193
					c0.419,0,0.774-0.061,1.064-0.182c0.29-0.121,0.539-0.278,0.745-0.469c0.147-0.132,0.274-0.3,0.38-0.502
					c0.107-0.202,0.189-0.428,0.248-0.678h-2.482V436.334z"/>
			</g>
			<g>
				<path style="fill:#FFFFFF;" d="M297.3,431.299c-0.006-1.224-0.959-2.121-2.189-2.14c-0.924-0.014-0.832,0.12-0.834-0.867
					c-0.003-1.097-0.007-2.194,0.003-3.292c0.003-0.379-0.112-0.691-0.362-0.976c-2.342-2.668-4.678-5.342-7.019-8.011
					c-0.12-0.137-0.275-0.244-0.414-0.366c-6.214,0-12.427,0-18.641,0c-0.794,0.293-1.14,0.868-1.138,1.709
					c0.01,3.748,0.004,7.496,0.004,11.243c0,0.556-0.003,0.589-0.55,0.551c-1.497-0.102-2.516,0.986-2.497,2.492
					c0.044,3.476,0.013,6.953,0.014,10.429c0.001,1.58,0.867,2.443,2.45,2.449c0.582,0.002,0.582,0.002,0.582,0.6
					c0,2.219-0.001,4.438,0.001,6.657c0.001,1.192,0.58,1.771,1.768,1.771c8.013,0.001,16.027,0.001,24.04,0
					c1.168,0,1.755-0.583,1.757-1.745c0.002-2.256,0-4.512,0.001-6.768c0-0.512,0.002-0.511,0.52-0.515
					c0.271-0.002,0.541,0.008,0.809-0.058c0.996-0.246,1.69-1.044,1.694-2.069C297.315,438.696,297.318,434.997,297.3,431.299z
					 M268.85,417.162c5.337,0,10.674,0,16.01,0c0.548,0,0.554,0.007,0.554,0.561c0.001,2.243-0.001,4.486,0.001,6.73
					c0.001,0.811,0.249,1.059,1.06,1.059c1.91,0.001,3.821,0,5.731,0.001c0.458,0,0.479,0.021,0.481,0.483
					c0.003,0.887,0.002,1.775,0,2.662c-0.001,0.477-0.024,0.498-0.504,0.499c-3.895,0.001-7.79,0-11.684,0
					c-3.882,0-7.765,0-11.647,0c-0.55,0-0.552-0.001-0.552-0.561c-0.001-3.624-0.001-7.247,0-10.871
					C268.299,417.166,268.303,417.162,268.85,417.162z M292.135,451.579c-3.883,0.001-7.766,0-11.65,0c-3.871,0-7.742,0-11.613,0
					c-0.572,0-0.574-0.002-0.574-0.579c-0.001-1.997-0.001-3.994,0.001-5.991c0-0.464,0.023-0.486,0.478-0.487
					c7.803-0.001,15.607-0.001,23.41,0c0.478,0,0.499,0.02,0.499,0.503c0.001,1.997,0.001,3.994,0,5.991
					C292.687,451.574,292.682,451.579,292.135,451.579z"/>
			</g>
			<g>
				<path style="fill:#FFFFFF;" d="M272.966,434.183v1.831h3.165v1.412h-3.165v1.831h3.518v1.412h-5.007v-7.897h5.007v1.412H272.966
					z"/>
				<path style="fill:#FFFFFF;" d="M277.852,440.669v-7.897h2.779c0.375,0,0.726,0.061,1.053,0.182
					c0.327,0.121,0.612,0.292,0.855,0.513c0.243,0.221,0.434,0.483,0.574,0.789c0.14,0.305,0.209,0.642,0.209,1.009
					c0,0.375-0.07,0.715-0.209,1.02c-0.14,0.305-0.331,0.568-0.574,0.789c-0.243,0.221-0.528,0.392-0.855,0.513
					c-0.327,0.121-0.678,0.182-1.053,0.182h-1.29v2.901H277.852z M280.653,436.356c0.389,0,0.684-0.111,0.882-0.331
					c0.199-0.22,0.298-0.474,0.298-0.761c0-0.14-0.024-0.276-0.072-0.408c-0.048-0.132-0.121-0.248-0.221-0.347
					c-0.099-0.099-0.222-0.178-0.37-0.237c-0.147-0.059-0.32-0.089-0.518-0.089h-1.312v2.173H280.653z"/>
				<path style="fill:#FFFFFF;" d="M286.797,440.845c-0.338,0-0.662-0.048-0.971-0.143c-0.309-0.095-0.592-0.239-0.849-0.43
					c-0.257-0.191-0.482-0.425-0.673-0.7c-0.191-0.276-0.342-0.597-0.452-0.965l1.401-0.551c0.103,0.397,0.283,0.726,0.541,0.987
					c0.257,0.261,0.595,0.392,1.015,0.392c0.154,0,0.303-0.02,0.447-0.061c0.143-0.04,0.272-0.099,0.386-0.176
					c0.114-0.077,0.204-0.175,0.27-0.292c0.066-0.118,0.1-0.254,0.1-0.408c0-0.147-0.026-0.279-0.077-0.397
					c-0.051-0.117-0.138-0.227-0.259-0.331c-0.121-0.103-0.279-0.202-0.474-0.298c-0.195-0.095-0.436-0.195-0.723-0.298
					l-0.485-0.176c-0.213-0.073-0.428-0.173-0.645-0.298c-0.217-0.125-0.414-0.276-0.59-0.452c-0.176-0.176-0.322-0.384-0.436-0.623
					c-0.114-0.239-0.171-0.509-0.171-0.81c0-0.309,0.061-0.597,0.182-0.866c0.121-0.268,0.294-0.503,0.518-0.706
					c0.224-0.202,0.493-0.36,0.805-0.474c0.312-0.114,0.66-0.171,1.042-0.171c0.397,0,0.741,0.053,1.031,0.16
					c0.29,0.107,0.537,0.243,0.739,0.408c0.202,0.165,0.365,0.348,0.491,0.546c0.125,0.199,0.217,0.386,0.276,0.563l-1.312,0.551
					c-0.074-0.221-0.208-0.419-0.403-0.596c-0.195-0.176-0.462-0.265-0.799-0.265c-0.324,0-0.592,0.075-0.805,0.226
					c-0.213,0.151-0.32,0.348-0.32,0.59c0,0.235,0.103,0.436,0.309,0.601c0.206,0.165,0.533,0.325,0.982,0.48l0.496,0.165
					c0.316,0.111,0.605,0.237,0.866,0.381c0.261,0.143,0.485,0.314,0.673,0.513c0.187,0.199,0.331,0.425,0.43,0.678
					c0.099,0.254,0.149,0.546,0.149,0.877c0,0.412-0.083,0.767-0.248,1.064c-0.165,0.298-0.377,0.542-0.634,0.734
					c-0.258,0.191-0.548,0.335-0.872,0.43C287.422,440.797,287.105,440.845,286.797,440.845z"/>
			</g>
			<g>
				<path style="fill:#FFFFFF;" d="M321.394,439.168l4.004-4.985h-3.827v-1.412h5.559v1.5l-3.96,4.985h4.004v1.412h-5.779V439.168z"
					/>
				<path style="fill:#FFFFFF;" d="M328.409,432.771h1.489v7.897h-1.489V432.771z"/>
				<path style="fill:#FFFFFF;" d="M331.486,440.669v-7.897h2.779c0.375,0,0.726,0.061,1.053,0.182
					c0.327,0.121,0.612,0.292,0.855,0.513s0.434,0.483,0.574,0.789c0.14,0.305,0.209,0.642,0.209,1.009
					c0,0.375-0.07,0.715-0.209,1.02c-0.14,0.305-0.331,0.568-0.574,0.789c-0.243,0.221-0.528,0.392-0.855,0.513
					c-0.327,0.121-0.678,0.182-1.053,0.182h-1.29v2.901H331.486z M334.288,436.356c0.389,0,0.684-0.111,0.882-0.331
					c0.199-0.22,0.298-0.474,0.298-0.761c0-0.14-0.024-0.276-0.072-0.408c-0.048-0.132-0.121-0.248-0.221-0.347
					c-0.099-0.099-0.222-0.178-0.37-0.237c-0.147-0.059-0.32-0.089-0.518-0.089h-1.312v2.173H334.288z"/>
			</g>
		</g>
		<g style="opacity:0.61;">
			<path style="fill:#FFFFFF;" d="M300.133,433.27h9.067v2.242h-9.067V433.27z M300.133,437.136h9.067v2.243h-9.067V437.136z"/>
		</g>
	</g>
	<g style="opacity:0.61;">
		<path style="fill:#FFFFFF;" d="M156.756,478.878h1.607c1.263,0,2.114,0.812,2.114,1.974c0,1.161-0.851,1.973-2.114,1.973h-1.607
			V478.878z M158.34,482.464c1.049,0,1.725-0.665,1.725-1.612c0-0.947-0.677-1.613-1.725-1.613h-1.167v3.225H158.34z"/>
		<path style="fill:#FFFFFF;" d="M165.139,480.851c0-1.15,0.879-2.007,2.075-2.007c1.184,0,2.069,0.851,2.069,2.007
			c0,1.156-0.885,2.007-2.069,2.007C166.019,482.858,165.139,482.002,165.139,480.851z M168.866,480.851
			c0-0.942-0.705-1.635-1.652-1.635c-0.953,0-1.663,0.693-1.663,1.635c0,0.941,0.71,1.635,1.663,1.635
			C168.162,482.486,168.866,481.793,168.866,480.851z"/>
		<path style="fill:#FFFFFF;" d="M179.596,478.878l-1.331,3.947h-0.44l-1.156-3.366l-1.161,3.366h-0.434l-1.331-3.947h0.429
			l1.139,3.394l1.178-3.394h0.389l1.161,3.411l1.156-3.411H179.596z"/>
		<path style="fill:#FFFFFF;" d="M187.731,478.878v3.947h-0.344l-2.537-3.202v3.202h-0.417v-3.947h0.344l2.543,3.203v-3.203H187.731
			z"/>
		<path style="fill:#FFFFFF;" d="M193.093,478.878h0.417v3.586h2.21v0.361h-2.627V478.878z"/>
		<path style="fill:#FFFFFF;" d="M200.061,480.851c0-1.15,0.879-2.007,2.075-2.007c1.184,0,2.069,0.851,2.069,2.007
			c0,1.156-0.885,2.007-2.069,2.007C200.941,482.858,200.061,482.002,200.061,480.851z M203.788,480.851
			c0-0.942-0.705-1.635-1.652-1.635c-0.953,0-1.663,0.693-1.663,1.635c0,0.941,0.71,1.635,1.663,1.635
			C203.083,482.486,203.788,481.793,203.788,480.851z"/>
		<path style="fill:#FFFFFF;" d="M211.636,481.77h-2.199l-0.474,1.054h-0.434l1.804-3.947h0.412l1.804,3.947h-0.44L211.636,481.77z
			 M211.484,481.432l-0.947-2.12l-0.947,2.12H211.484z"/>
		<path style="fill:#FFFFFF;" d="M217.28,478.878h1.607c1.263,0,2.114,0.812,2.114,1.974c0,1.161-0.851,1.973-2.114,1.973h-1.607
			V478.878z M218.864,482.464c1.049,0,1.725-0.665,1.725-1.612c0-0.947-0.677-1.613-1.725-1.613h-1.167v3.225H218.864z"/>
		<path style="fill:#FFFFFF;" d="M234.041,481.77h-2.199l-0.474,1.054h-0.434l1.804-3.947h0.412l1.804,3.947h-0.44L234.041,481.77z
			 M233.889,481.432l-0.947-2.12l-0.947,2.12H233.889z"/>
		<path style="fill:#FFFFFF;" d="M239.685,478.878h0.417v3.586h2.21v0.361h-2.627V478.878z"/>
		<path style="fill:#FFFFFF;" d="M247.082,478.878h0.417v3.586h2.21v0.361h-2.627V478.878z"/>
		<path style="fill:#FFFFFF;" d="M260.449,479.239v1.551h2.041v0.361h-2.041v1.675h-0.417v-3.947h2.706v0.361H260.449z"/>
		<path style="fill:#FFFFFF;" d="M267.678,478.878h0.417v3.947h-0.417V478.878z"/>
		<path style="fill:#FFFFFF;" d="M273.456,478.878h0.417v3.586h2.21v0.361h-2.627V478.878z"/>
		<path style="fill:#FFFFFF;" d="M283.644,482.464v0.361h-2.791v-3.947h2.706v0.361h-2.289v1.404h2.041v0.355h-2.041v1.466H283.644z
			"/>
		<path style="fill:#FFFFFF;" d="M294.672,479.239v1.551h2.041v0.361h-2.041v1.675h-0.417v-3.947h2.706v0.361H294.672z"/>
		<path style="fill:#FFFFFF;" d="M301.5,480.851c0-1.15,0.879-2.007,2.075-2.007c1.184,0,2.069,0.851,2.069,2.007
			c0,1.156-0.885,2.007-2.069,2.007C302.379,482.858,301.5,482.002,301.5,480.851z M305.226,480.851
			c0-0.942-0.705-1.635-1.652-1.635c-0.953,0-1.663,0.693-1.663,1.635c0,0.941,0.71,1.635,1.663,1.635
			C304.522,482.486,305.226,481.793,305.226,480.851z"/>
		<path style="fill:#FFFFFF;" d="M313.351,482.825l-0.902-1.269c-0.102,0.011-0.203,0.017-0.316,0.017h-1.06v1.252h-0.417v-3.947
			h1.477c1.004,0,1.613,0.507,1.613,1.353c0,0.62-0.327,1.054-0.902,1.24l0.964,1.353H313.351z M313.328,480.231
			c0-0.632-0.417-0.992-1.207-0.992h-1.048v1.979h1.048C312.911,481.218,313.328,480.851,313.328,480.231z"/>
		<path style="fill:#FFFFFF;" d="M322.907,478.878v3.947h-0.4v-3.158l-1.551,2.656h-0.197l-1.551-2.639v3.14h-0.4v-3.947h0.344
			l1.714,2.926l1.697-2.926H322.907z"/>
		<path style="fill:#FFFFFF;" d="M330.744,481.77h-2.199l-0.473,1.054h-0.434l1.804-3.947h0.411l1.804,3.947h-0.44L330.744,481.77z
			 M330.592,481.432l-0.947-2.12l-0.947,2.12H330.592z"/>
		<path style="fill:#FFFFFF;" d="M336.957,479.239h-1.387v-0.361h3.192v0.361h-1.387v3.586h-0.417V479.239z"/>
		<path style="fill:#FFFFFF;" d="M343.063,482.346l0.164-0.321c0.282,0.276,0.784,0.479,1.302,0.479c0.739,0,1.06-0.31,1.06-0.699
			c0-1.083-2.43-0.417-2.43-1.877c0-0.581,0.451-1.083,1.455-1.083c0.446,0,0.908,0.13,1.224,0.35l-0.141,0.333
			c-0.338-0.22-0.733-0.327-1.083-0.327c-0.722,0-1.043,0.321-1.043,0.716c0,1.083,2.43,0.429,2.43,1.866
			c0,0.581-0.462,1.077-1.472,1.077C343.937,482.858,343.356,482.65,343.063,482.346z"/>
	</g>
</g>
<g>
</g>
<g>
	<rect x="25" y="192.329" style="fill:#FFFFFF;" width="48.272" height="48.25"/>
	<path style="fill:#006CB6;" d="M63.972,204.802c-7.217,10.906-17.804,25.355-37.471,24.16v-35.123h44.131
		C70.632,193.839,68.046,198.653,63.972,204.802"/>
	<path style="fill:#E4A724;" d="M26.501,231.61v7.468H71.77v-44.671C71.77,194.407,57.281,234.467,26.501,231.61"/>
	<path style="fill:#007EBC;" d="M41.863,205.841c-6.113,0-11.064,4.924-11.064,11.026c0,5.032,3.374,9.257,8.003,10.591
		c5.505-1.784,10.076-4.935,13.961-8.617c0.118-0.636,0.175-1.303,0.175-1.974C52.938,210.765,47.986,205.841,41.863,205.841"/>
	<path style="fill:#5D97C8;" d="M50.18,216.865c0,4.567-3.714,8.279-8.317,8.279c-4.59,0-8.307-3.712-8.307-8.279
		c0-4.561,3.716-8.252,8.307-8.252C46.466,208.613,50.18,212.304,50.18,216.865"/>
	<path style="fill:#93B3D9;" d="M47.412,216.865c0,3.053-2.504,5.492-5.551,5.492c-3.047,0-5.507-2.439-5.507-5.492
		c0-3.036,2.46-5.511,5.507-5.511C44.907,211.354,47.412,213.829,47.412,216.865"/>
	<path style="fill:#C6D4E4;" d="M44.639,216.865c0,1.533-1.25,2.753-2.777,2.753c-1.527,0-2.768-1.22-2.768-2.753
		c0-1.525,1.242-2.745,2.768-2.745C43.389,214.12,44.639,215.34,44.639,216.865"/>
	<path style="fill:#006CB6;" d="M100.947,220.062h7.171c2.515,0,4.231,0.414,5.234,1.212c0.992,0.785,1.497,1.845,1.497,3.161
		c0,1.423-0.515,2.551-1.508,3.391c-0.992,0.849-2.724,1.256-5.177,1.256h-7.217 M86.65,238.759h24.468
		c1.022,0,3.165-0.203,6.33-0.606c2.416-0.298,4.2-0.775,5.397-1.467c1.924-1.071,3.435-2.557,4.525-4.405
		c1.117-1.826,1.664-3.942,1.664-6.252c0-2.87-0.777-5.234-2.333-7.126c-1.544-1.879-3.987-3.218-7.276-3.991
		c2.158-0.705,3.803-1.738,4.941-2.969c1.691-1.905,2.553-4.177,2.553-6.837c0-3.155-1.178-5.817-3.558-7.946
		c-2.363-2.139-5.769-3.233-10.184-3.233H86.65V238.759z M100.947,203.06h6.259c2.114,0,3.632,0.37,4.521,1.106
		c0.834,0.733,1.275,1.748,1.275,3.043c0,1.404-0.441,2.468-1.275,3.21c-0.889,0.747-2.435,1.094-4.639,1.094h-6.14V203.06z"/>
	<path style="fill:#006CB6;" d="M147.268,238.757v-18.199h1.229c1.305,0,2.46,0.327,3.476,1.026
		c0.716,0.538,1.577,1.681,2.553,3.461l7.534,13.712h16.033l-6.903-12.982c-0.353-0.652-1.003-1.575-1.981-2.791
		c-0.982-1.22-1.731-2.014-2.268-2.375c-0.775-0.549-1.989-1.104-3.678-1.649c2.118-0.465,3.794-1.085,4.998-1.767
		c1.915-1.109,3.423-2.585,4.504-4.379c1.096-1.82,1.641-3.949,1.641-6.44c0-2.865-0.705-5.245-2.139-7.249
		c-1.415-1.987-3.288-3.357-5.602-4.069c-2.316-0.699-5.684-1.128-10.051-1.128h-23.626v44.83 M147.268,202.977h6.18
		c2.572,0,4.318,0.382,5.26,1.17c0.931,0.752,1.391,1.875,1.391,3.3c0,0.995-0.294,1.845-0.874,2.61
		c-0.589,0.762-1.36,1.235-2.278,1.41c-1.864,0.427-3.115,0.614-3.737,0.614h-5.942V202.977z"/>
	<path style="fill:#006CB6;" d="M212.079,238.759h14.85l-17.127-44.83h-15.634l-17.232,44.83h14.485l2.335-7.395h16.02
		 M196.771,221.692l5.034-16.107l4.985,16.107H196.771z"/>
	<path style="fill:#006CB6;" d="M257.842,220.294l12.481,3.537c-0.834,3.29-2.171,6.058-3.974,8.271
		c-1.793,2.196-4.027,3.854-6.687,4.981c-2.663,1.111-6.026,1.677-10.154,1.677c-4.996,0-9.073-0.676-12.232-2.038
		c-3.152-1.379-5.904-3.784-8.172-7.221c-2.302-3.448-3.433-7.861-3.433-13.241c0-7.169,1.985-12.678,6.045-16.531
		c4.033-3.862,9.719-5.798,17.108-5.798c5.803,0,10.313,1.128,13.615,3.328c3.313,2.226,5.767,5.621,7.39,10.182l-12.564,2.684
		c-0.448-1.335-0.887-2.321-1.385-2.922c-0.777-1.056-1.759-1.826-2.891-2.397c-1.159-0.553-2.439-0.84-3.83-0.84
		c-3.203,0-5.661,1.22-7.365,3.653c-1.307,1.82-1.947,4.652-1.947,8.522c0,4.791,0.781,8.089,2.316,9.873
		c1.533,1.776,3.718,2.663,6.516,2.663c2.711,0,4.755-0.722,6.149-2.137C256.225,225.113,257.219,223.029,257.842,220.294"/>
	<path style="fill:#006CB6;" d="M299.893,220.062h7.177c2.519,0,4.25,0.414,5.26,1.212c0.995,0.785,1.455,1.845,1.455,3.161
		c0,1.423-0.492,2.551-1.489,3.391c-0.997,0.849-2.718,1.256-5.163,1.256h-7.24 M285.6,238.759h24.475
		c1.049,0,3.169-0.203,6.349-0.606c2.394-0.298,4.189-0.775,5.393-1.467c1.892-1.071,3.41-2.557,4.538-4.405
		c1.087-1.826,1.643-3.942,1.643-6.252c0-2.87-0.783-5.234-2.316-7.126c-1.579-1.879-3.991-3.218-7.297-3.991
		c2.145-0.705,3.807-1.738,4.941-2.969c1.687-1.905,2.532-4.177,2.532-6.837c0-3.155-1.172-5.817-3.549-7.946
		c-2.384-2.139-5.75-3.233-10.173-3.233H285.6V238.759z M299.893,203.06h6.254c2.139,0,3.645,0.37,4.523,1.106
		c0.855,0.733,1.277,1.748,1.277,3.043c0,1.404-0.422,2.468-1.277,3.21c-0.878,0.747-2.407,1.094-4.616,1.094h-6.161V203.06z"/>
	<path style="fill:#006CB6;" d="M361.03,238.759h14.874l-17.114-44.83h-15.651l-17.209,44.83h14.479l2.321-7.395h16.018
		 M345.73,221.692l5.044-16.107l4.966,16.107H345.73z"/>
	<polyline style="fill:#006CB6;" points="376.658,193.927 389.863,193.927 407.201,218.734 407.201,193.927 420.609,193.927 
		420.609,238.757 407.201,238.757 389.982,214.12 389.982,238.757 376.658,238.757 	"/>
	<polyline style="fill:#006CB6;" points="426.296,193.927 440.489,193.927 440.489,210.877 455.35,193.927 474.229,193.927 
		457.455,210.82 475,238.757 457.527,238.757 447.861,220.459 440.489,227.906 440.489,238.757 426.296,238.757 	"/>
	<path style="fill:#1D1D1B;" d="M353.509,269.262l-0.049-0.008h-0.04c-0.8,0-1.506,0.302-2.021,0.84
		c-0.857,0.874-0.925,2.169-0.925,2.682v0.697c-0.769-0.969-1.626-1.81-2.654-2.361c-3.562-1.85-7.411-0.606-8.148-0.332
		l-0.258,0.304c-6.092-4.557-11.569-0.372-12.933,0.823c-1.239-0.619-3.735-1.803-3.949-1.839l0.205,0.08
		c-1.636-1.068-2.779-0.836-3.444-0.462c-1.223,0.72-1.425,2.215-1.472,2.954c-1.345-2.063-2.665-3.212-3.993-3.408
		c-1.134-0.158-1.81,0.323-2.118,0.627l-0.186,0.044l-0.114,0.032l-0.095,0.072c-1.896,1.535-3.011,11.569-3.535,18.049
		c-0.95-0.591-2.012-1.195-3.089-1.767c0.921-1.607,1.632-3.478,2.065-5.669c0.074-0.372,1.463-8.744-4.597-10.716l-0.04-0.027
		h-0.051c-0.942-0.169-4.149-0.551-6.814,1.311c-1.831,1.29-2.95,3.33-3.343,6.102c-0.004,0.051-0.125,2.851,1.759,4.525
		c1.098,0.959,2.538,1.29,4.291,1.001c0.367-0.046,0.693-0.251,0.908-0.555c0.22-0.31,0.306-0.699,0.228-1.075
		c-0.042-0.34-0.234-0.667-0.543-0.885c-0.308-0.222-0.695-0.319-1.073-0.251c-0.591,0.091-1.423,0.116-1.926-0.34
		c-0.572-0.496-0.8-1.421-0.828-2.16c0.277-1.864,0.98-3.233,2.143-4.044c1.598-1.142,3.663-1.003,4.51-0.883
		c2.274,0.743,2.751,3.419,2.751,5.543c0,0.642-0.057,1.32-0.148,1.913v0.006c-0.414,2.082-1.09,3.881-1.987,5.351l-1.02,1.288
		l-0.146,0.184c-2.416,2.582-5.148,2.403-5.173,2.403c-10.477-1.271-11.111-19.434-11.115-19.61
		c-0.036-0.807-0.671-1.413-1.444-1.402c-0.399,0.013-0.747,0.163-1.009,0.443c-0.251,0.268-0.386,0.633-0.378,1.007
		c0.025,0.84,0.612,20.777,13.63,22.367h0.065c0.726,0.038,4.508-0.011,7.661-3.524c2.629,1.411,4.51,2.589,4.766,2.886
		c0.348,0.469,1.009,0.697,1.539,0.519c0.579-0.19,0.973-0.638,1.028-1.206c0.716-10.053,2.004-17.876,2.72-18.617l0.279-0.144
		h0.004c0.099,0.017,1.651,0.384,4.25,6.387l-0.376,13.455c-0.011,0.781,0.612,1.421,1.383,1.44
		c0.359,0.008,0.731-0.133,1.003-0.382c0.268-0.266,0.429-0.612,0.437-0.984l0.332-12.61l0.044-1.322l0.152-5.047
		c-0.021-0.302,0.03-0.545,0.089-0.718c0.129,0.044,0.325,0.139,0.612,0.321l0.059,0.044c0.796,0.353,2.724,1.25,3.938,1.862
		c-0.125,0.674-0.239,1.339-0.239,1.974c0,2.082,0.695,3.86,2.012,5.123l-0.063-0.076c0.342,0.477,0.874,1.273,1.322,2.101
		l0.446,0.925c0.184,0.393,0.211,0.623,0.226,0.703c0.011,0.684-0.211,1.873-0.771,2.211c-0.568,0.338-1.784,0-3.298-0.923
		c-0.676-0.397-1.516-0.192-1.924,0.46c-0.42,0.684-0.22,1.546,0.467,1.957c2.546,1.525,4.633,1.841,6.191,0.935
		c2.04-1.191,2.173-3.936,2.152-4.759v-0.021l-0.004-0.046c-0.049-0.579-0.287-1.269-0.688-2.133
		c0.082-0.663,0.308-1.411,0.931-1.51c0.049-0.004,3.045-0.488,4.892,2.941c0.158,0.277,0.41,0.484,0.69,0.602
		c-0.061,0.251-0.11,0.507-0.135,0.762c-1.415,0.665-2.43,1.55-2.916,2.669c-1.094,2.508,0.501,5.019,0.513,5.036l0.277,0.302
		l-0.087-0.091c1.244,1.277,2.477,1.43,3.292,1.343c2.295-0.251,3.668-2.576,3.685-2.604c0.177-0.281,0.245-0.652,0.156-1.024
		c-0.08-0.376-0.291-0.684-0.614-0.878c-0.648-0.422-1.508-0.239-1.932,0.424c-0.304,0.458-0.992,1.21-1.607,1.271
		c-0.255,0.051-0.553-0.125-0.861-0.412c-0.118-0.213-0.397-0.792-0.397-1.468c0-0.272,0.065-0.53,0.161-0.773
		c0.395-0.9,1.757-1.62,3.742-1.985c0.454-0.011,3.269-0.011,4.677,1.721c0.965,1.18,1.104,3.013,0.427,5.448
		c-0.021,0.049-2.097,5.114-15.651,1.793c-0.473-0.131-0.988,0-1.343,0.361c-0.351,0.338-0.494,0.849-0.365,1.343
		c0.154,0.541,3.86,12.817,27.997,8.611c0.764-0.135,1.288-0.864,1.159-1.632c-0.152-0.762-0.883-1.271-1.645-1.155
		c-14.781,2.587-20.906-1.389-23.313-4.172c13.077,2.306,15.608-3.598,15.86-4.295c0.95-3.427,0.627-6.14-0.948-8.074
		c-2.331-2.848-6.351-2.783-7.137-2.745l-0.025,0.004l-0.021,0.019c1.121-3.974,0.359-8.71-0.255-11.295l0.321-0.042l-0.093,0.042
		l0.027-0.004l0.061-0.017c0.543-0.207,3.408-1.109,5.805,0.184c1.772,0.921,2.988,2.827,3.634,5.646l0.319,0.454l-0.07,12.642
		c0,0.758,0.61,1.389,1.375,1.425c0.824,0,1.449-0.627,1.449-1.425l0.106-19.601c-0.019-0.213,0.044-0.53,0.125-0.663
		c1.993,0.348,4.324,0.847,5.097,1.269c0.304,0.165,0.682,0.215,1.024,0.114c0.369-0.106,0.684-0.353,0.878-0.684
		c0.353-0.726,0.086-1.567-0.585-1.926C358.142,269.976,353.686,269.301,353.509,269.262 M338.315,281.353
		c-2.24-2.635-5.237-2.981-6.668-2.732c-0.919,0.156-1.624,0.697-2.192,1.417l-0.131-0.198l0.032,0.055l-0.188-0.226l0.032,0.021
		l-0.034-0.042l-0.036-0.036c-1.89-1.721-1.054-4.814-0.912-5.294l0.013-0.015l0.044-0.165l0.015-0.078
		c0.952-0.887,4.723-3.911,9.103-0.933c0.338,1.292,1.016,4.17,1.016,7.152C338.408,280.654,338.346,280.986,338.315,281.353
		 M473.987,269.617c-3.868-2.58-7.055-0.857-8.21,0.397l-0.234,0.372l-0.049,0.127c-4.643-2.536-12.409-1.438-12.488-1.419
		c-4.022,0.462-5.967,1.064-6.558,1.273c-5.682-2.143-9.688-0.08-11.474,1.237c-1.651-1.681-3.334-2.511-5.017-2.416
		c-2.179,0.152-3.33,1.763-3.44,1.919l-0.184,0.3l-0.03,0.08c-4.025-3.499-10.465-2.285-13.636-1.353l0.118-0.287l-0.12,0.167
		l0.201-0.327c0.376-1.117,2.416-6.523,7.046-8.005c3.507-1.125,7.802,0.245,12.754,4.054c0.272,0.228,0.636,0.334,1.011,0.289
		c0.384-0.051,0.731-0.245,0.959-0.547c0.471-0.621,0.35-1.501-0.26-1.974c-5.745-4.407-10.912-5.921-15.359-4.489
		c-6.499,2.086-8.784,9.626-8.824,9.762c-0.64,1.339-1.239,3.649-1.795,6.82c-1.934-3.987-3.731-6.1-5.591-6.364
		c-1.064-0.139-1.729,0.27-2.105,0.627l-0.201,0.044l-0.118,0.03l-0.095,0.074c-1.451,1.166-2.62,7.264-3.516,18.049
		c-0.811-0.484-1.814-1.071-3.102-1.767c0.899-1.546,1.609-3.378,2.078-5.669c0.236-1.51,1.079-8.875-4.597-10.716l-0.044-0.021
		l-0.036-0.006c-0.661-0.12-4.065-0.623-6.833,1.311c-1.837,1.296-2.965,3.351-3.349,6.102v0.074
		c-0.004,0.486,0.065,2.95,1.765,4.455c1.111,0.954,2.546,1.286,4.278,0.997c0.758-0.099,1.294-0.83,1.178-1.594
		c-0.048-0.372-0.251-0.703-0.547-0.921c-0.306-0.222-0.703-0.319-1.075-0.251c-0.61,0.091-1.459,0.116-1.964-0.338
		c-0.777-0.688-0.811-2.021-0.819-2.15c0.256-1.871,0.969-3.233,2.137-4.056c1.62-1.142,3.693-1.003,4.55-0.883
		c2.378,0.775,2.73,3.803,2.73,5.543c0,0.642-0.046,1.32-0.133,1.913v0.019c-0.441,2.107-1.13,3.908-2.031,5.338l0.042-0.04
		l-1.049,1.328l-0.22,0.27c-2.382,2.477-5.061,2.316-5.089,2.316c-10.475-1.271-11.113-19.434-11.128-19.61
		c-0.023-0.792-0.669-1.413-1.444-1.402c-0.769,0.023-1.389,0.663-1.379,1.43c0.027,0.861,0.728,20.809,13.632,22.388h0.072
		c0.439,0.032,4.411,0.068,7.652-3.524c2.675,1.449,4.521,2.597,4.753,2.886c0.376,0.469,1.016,0.676,1.55,0.519
		c0.598-0.201,0.997-0.661,1.026-1.216c0.726-10.047,2.021-17.87,2.73-18.607l-0.268,0.144c0.215-0.036,0.384-0.169,0.543-0.287
		h0.011c0.103,0.025,1.776,0.378,4.607,7.226c0.124,0.317,0.403,0.536,0.733,0.688c-0.446,3.235-0.821,6.89-1.13,10.938
		l-0.025,0.312l-0.004,0.108c0,0.745,0.572,1.362,1.303,1.415c0.788,0.032,1.442-0.543,1.51-1.318c0-0.12,0.847-11.48,2.278-17.956
		l0.089-0.017c0.327-0.127,7.16-2.684,11.444-0.579c-2.137,1.385-5.819,4.067-7.853,7.504c0.015-0.036-1.132,1.55-1.132,3.452
		c0,0.232,0.025,0.479,0.072,0.79c0.226,1.166,0.891,2.114,1.905,2.775c0.94,0.68,5.815,4.151,9.398,5.285
		c0.507,0.11,0.963,0.025,1.284-0.241c0.342-0.239,0.555-0.661,0.555-1.115v-0.348c0-1.402,0.044-13.792,1.495-18.334
		c0.156-0.169,0.57-0.581,1.24-0.623c0.733-0.027,1.655,0.513,2.661,1.491c-0.133,2.228-0.87,15.214-0.902,15.803
		c0.042,1.425,1.016,4.008,4.373,4.008h0.036l0.091-0.013h0.015l0.027-0.004h0.057c1.324-0.234,7.895-1.535,9.757-5.104
		c0.342-0.69,0.503-1.351,0.503-2.069c0-0.764-0.198-1.539-0.587-2.331l-0.258-0.38c-0.038-0.042-5.629-5.739-10.444-7.173
		l0.061-0.984l0.034-0.566l0.313-0.169c0.068-0.078,3.543-4.096,10.03-1.364c0.348,0.131,0.724,0.139,1.049,0.034l0.101-0.034
		l0.021-0.019c0.152-0.049,2.044-0.756,6.284-1.244c0.34-0.042,7.859-0.978,11.223,1.379c-0.346,1.626-0.528,3.389-0.646,5.002
		c-0.828-0.676-1.702-1.119-2.637-1.09c-1.297,0.061-2.519,0.834-3.655,2.228c-0.532-0.876-1.134-1.575-1.879-1.979
		c-1.383-0.777-2.705-0.604-3.33-0.452l-0.133,0.027h-0.006v0.038c-3.389,0.652-4.521,6.341-4.85,8.818
		c-0.519,5.163,2.952,5.688,3.093,5.705c3.235,0.209,4.88-2.021,5.3-3.241c0.241-0.739-0.133-1.539-0.842-1.795
		c-0.771-0.241-1.552,0.131-1.814,0.853c-0.027,0.08-0.534,1.451-2.302,1.381c-0.108-0.053-0.855-0.41-0.631-2.576
		c0.351-2.918,1.542-6.301,2.625-6.432l0.241-0.055c0,0,0.648-0.182,1.32,0.196c0.728,0.429,1.284,1.391,1.605,2.804
		c0.127,0.581,0.615,1.022,1.208,1.085c0.631,0.065,1.187-0.251,1.453-0.794c0.435-1.007,1.715-2.943,2.726-2.994
		c0.598-0.025,1.368,0.745,2.133,2.122l0.209,0.224c-0.034,3.788,0.179,6.917,0.188,7.061c0.063,0.773,0.731,1.362,1.495,1.301
		c0.777-0.065,1.322-0.661,1.322-1.41l-0.072-0.317l0.061,0.253l-0.011-0.137c-0.108-1.934-0.158-3.974-0.158-5.902
		c0-5.494,0.481-9.417,1.406-11.4c0.477-0.45,1.97-1.446,4.354,0.158c0.272,0.209,0.671,0.283,1.052,0.209
		c0.382-0.07,0.712-0.285,0.908-0.602C474.747,270.943,474.605,270.094,473.987,269.617 M424.623,289.2
		c-3.11-1.467-6.66-4.022-6.82-4.143c-0.433-0.289-0.659-0.593-0.737-0.954l-0.03-0.304c0-0.547,0.255-1.25,0.68-1.911v-0.011
		l0.019-0.049c1.981-3.309,6.083-6.073,7.876-7.175C424.834,279.391,424.663,286.129,424.623,289.2 M443.69,285.143
		c0.167,0.353,0.266,0.676,0.266,0.959c0,0.279-0.063,0.534-0.186,0.766c-0.963,1.858-5.101,3.169-7.536,3.592
		c-1.166-0.036-1.44-0.714-1.508-1.149l0.587-10.169C438.916,280.525,443.141,284.603,443.69,285.143 M426.481,271.385l0.036-0.053
		l0.034-0.046L426.481,271.385z"/>
</g>
</svg>
